<mxfile host="app.diagrams.net" modified="2024-05-09T08:21:46.333Z" agent="Mozilla/5.0 (Windows NT 10.0; Win64; x64) AppleWebKit/537.36 (KHTML, like Gecko) Chrome/124.0.0.0 Safari/537.36" version="24.3.1" etag="dEoecixlb1mLTciUA6mc" type="github">
  <diagram name="페이지-1" id="hc125s9khvFQjk3n-LjC">
    <mxGraphModel>
      <root>
        <mxCell id="0" />
        <mxCell id="1" parent="0" />
      </root>
    </mxGraphModel>
  </diagram>
</mxfile>
